<svg width="311" height="170" viewBox="0 0 311 170" fill="none" xmlns="http://www.w3.org/2000/svg">
<path fill-rule="evenodd" clip-rule="evenodd" d="M25.9233 50.5074V47.5C38.9855 47.5 50.0979 39.1519 54.2163 27.5H255.63C259.749 39.1519 270.861 47.5 283.923 47.5C284.258 47.5 284.591 47.4945 284.923 47.4836V50.5074C276.042 50.7718 268.923 58.0546 268.923 67C268.923 75.9454 276.042 83.2282 284.923 83.4926V86V86.5074C276.042 86.7718 268.923 94.0546 268.923 103C268.923 111.945 276.042 119.228 284.923 119.493V122.5L284.907 122.516C284.58 122.505 284.253 122.5 283.923 122.5C270.49 122.5 259.12 131.329 255.297 143.5H54.5499C50.7271 131.329 39.3563 122.5 25.9233 122.5V119.493C26.0894 119.498 26.2561 119.5 26.4233 119.5C35.536 119.5 42.9233 112.113 42.9233 103C42.9233 93.8873 35.536 86.5 26.4233 86.5C26.2561 86.5 26.0894 86.5025 25.9233 86.5074V86V83.4926C26.0894 83.4975 26.2561 83.5 26.4233 83.5C35.536 83.5 42.9233 76.1127 42.9233 67C42.9233 57.8873 35.536 50.5 26.4233 50.5C26.2561 50.5 26.0894 50.5025 25.9233 50.5074ZM228.423 35.5C226.49 35.5 224.923 37.067 224.923 39V54C224.923 55.933 226.49 57.5 228.423 57.5C230.356 57.5 231.923 55.933 231.923 54V39C231.923 37.067 230.356 35.5 228.423 35.5ZM224.923 117C224.923 115.067 226.49 113.5 228.423 113.5C230.356 113.5 231.923 115.067 231.923 117V132C231.923 133.933 230.356 135.5 228.423 135.5C226.49 135.5 224.923 133.933 224.923 132V117ZM228.423 87.5C226.49 87.5 224.923 89.067 224.923 91V106C224.923 107.933 226.49 109.5 228.423 109.5C230.356 109.5 231.923 107.933 231.923 106V91C231.923 89.067 230.356 87.5 228.423 87.5ZM224.923 65C224.923 63.067 226.49 61.5 228.423 61.5C230.356 61.5 231.923 63.067 231.923 65V80C231.923 81.933 230.356 83.5 228.423 83.5C226.49 83.5 224.923 81.933 224.923 80V65ZM82.4233 35.5C80.4903 35.5 78.9233 37.067 78.9233 39V54C78.9233 55.933 80.4903 57.5 82.4233 57.5C84.3563 57.5 85.9233 55.933 85.9233 54V39C85.9233 37.067 84.3563 35.5 82.4233 35.5ZM78.9233 117C78.9233 115.067 80.4903 113.5 82.4233 113.5C84.3563 113.5 85.9233 115.067 85.9233 117V132C85.9233 133.933 84.3563 135.5 82.4233 135.5C80.4903 135.5 78.9233 133.933 78.9233 132V117ZM82.4233 87.5C80.4903 87.5 78.9233 89.067 78.9233 91V106C78.9233 107.933 80.4903 109.5 82.4233 109.5C84.3563 109.5 85.9233 107.933 85.9233 106V91C85.9233 89.067 84.3563 87.5 82.4233 87.5ZM78.9233 65C78.9233 63.067 80.4903 61.5 82.4233 61.5C84.3563 61.5 85.9233 63.067 85.9233 65V80C85.9233 81.933 84.3563 83.5 82.4233 83.5C80.4903 83.5 78.9233 81.933 78.9233 80V65ZM154.923 135.5C182.538 135.5 204.923 113.114 204.923 85.5C204.923 57.8858 182.538 35.5 154.923 35.5C127.309 35.5 104.923 57.8858 104.923 85.5C104.923 113.114 127.309 135.5 154.923 135.5Z" fill="white"/>
<path fill-rule="evenodd" clip-rule="evenodd" d="M62.9231 13H247.923C261.992 13 273.548 23.7603 274.809 37.5H287.846C286.556 16.5732 269.175 0 247.923 0H62.9231C41.6714 0 24.2905 16.5732 23 37.5H36.0373C37.2988 23.7603 48.8544 13 62.9231 13ZM36.0373 132.5H23C24.2905 153.427 41.6714 170 62.9231 170H247.923C269.175 170 286.556 153.427 287.846 132.5H274.809C273.548 146.24 261.992 157 247.923 157H62.9231C48.8544 157 37.2988 146.24 36.0373 132.5Z" fill="white"/>
<path fill-rule="evenodd" clip-rule="evenodd" d="M154.923 125.5C177.015 125.5 194.923 107.591 194.923 85.5C194.923 63.4086 177.015 45.5 154.923 45.5C132.832 45.5 114.923 63.4086 114.923 85.5C114.923 107.591 132.832 125.5 154.923 125.5ZM129.147 105.7C129.147 106.233 129.414 106.5 129.947 106.5H137.371C137.542 106.5 137.712 106.457 137.883 106.372C138.075 106.265 138.235 106.18 138.363 106.116L148.411 101.124C148.582 101.039 148.688 100.9 148.731 100.708C148.795 100.516 148.827 100.335 148.827 100.164V86.244C148.827 85.7107 148.667 85.3693 148.347 85.22L139.963 80.42V74.5L148.347 71.044C148.667 70.8733 148.827 70.5533 148.827 70.084V64.644C148.827 64.1107 148.56 63.844 148.027 63.844H139.387C139.11 63.844 138.875 63.8867 138.683 63.972C138.512 64.036 138.32 64.132 138.107 64.26L129.691 69.956C129.414 70.148 129.254 70.3293 129.211 70.5C129.168 70.6493 129.147 70.8947 129.147 71.236V82.98C129.147 83.4067 129.328 83.7267 129.691 83.94L137.947 89.06V94.756L129.563 98.596C129.35 98.7027 129.222 98.8413 129.179 99.012C129.158 99.1827 129.147 99.4067 129.147 99.684V105.7ZM155.545 105.7C155.545 106.233 155.811 106.5 156.345 106.5H165.401C165.934 106.5 166.201 106.233 166.201 105.7V91.3H174.041C174.553 91.3 174.979 91.1187 175.321 90.756L181.721 84.356C182.083 84.0147 182.265 83.588 182.265 83.076V72.036C182.265 71.5453 182.083 71.1187 181.721 70.756L175.321 64.356C174.979 64.0147 174.553 63.844 174.041 63.844H156.345C155.811 63.844 155.545 64.1107 155.545 64.644V105.7ZM172.217 81.54C171.577 82.244 170.371 82.596 168.601 82.596C166.851 82.596 165.646 82.244 164.985 81.54C164.345 80.836 164.025 79.5027 164.025 77.54C164.025 75.5773 164.345 74.244 164.985 73.54C165.646 72.836 166.851 72.484 168.601 72.484C170.371 72.484 171.577 72.836 172.217 73.54C172.878 74.244 173.209 75.5773 173.209 77.54C173.209 79.5027 172.878 80.836 172.217 81.54Z" fill="white"/>
<circle cx="308" cy="85" r="3" fill="white"/>
<circle cx="295" cy="85" r="3" fill="white"/>
<circle cx="16" cy="85" r="3" fill="white"/>
<circle cx="3" cy="85" r="3" fill="white"/>
</svg>
